HIERARCHY
ROOT hip
{
  OFFSET 0 0 0
  CHANNELS 6 Xposition Yposition Zposition Zrotation Yrotation Xrotation
  JOINT abdomen
  {
    OFFSET 0 20.6881 -0.73152
    CHANNELS 3 Zrotation Xrotation Yrotation
    JOINT chest
    {
      OFFSET 0 11.7043 -0.48768
      CHANNELS 3 Zrotation Xrotation Yrotation
      JOINT neck
      {
        OFFSET 0 22.1894 -2.19456
        CHANNELS 3 Zrotation Xrotation Yrotation
        JOINT head
        {
          OFFSET -0.24384 7.07133 1.2192
          CHANNELS 3 Zrotation Xrotation Yrotation
          JOINT leftEye
          {
            OFFSET 4.14528 8.04674 8.04672
            CHANNELS 3 Zrotation Xrotation Yrotation
            End Site
            {
              OFFSET 1 0 0
            }
          }
          JOINT rightEye
          {
            OFFSET -3.6576 8.04674 8.04672
            CHANNELS 3 Zrotation Xrotation Yrotation
            End Site
            {
              OFFSET 1 0 0
            }
          }
        }
      }
      JOINT rCollar
      {
        OFFSET -2.68224 19.2634 -4.8768
        CHANNELS 3 Zrotation Xrotation Yrotation
        JOINT rShldr
        {
          OFFSET -8.77824 -1.95073 1.46304
          CHANNELS 3 Zrotation Xrotation Yrotation
          JOINT rForeArm
          {
            OFFSET -28.1742 -1.7115 0.48768
            CHANNELS 3 Zrotation Xrotation Yrotation
            JOINT rHand
            {
              OFFSET -22.5879 0.773209 7.07136
              CHANNELS 3 Zrotation Xrotation Yrotation
              JOINT rThumb1
              {
                OFFSET -1.2192 -0.487915 3.41376
                CHANNELS 3 Zrotation Xrotation Yrotation
                JOINT rThumb2
                {
                  OFFSET -3.37035 -0.52449 3.41376
                  CHANNELS 3 Zrotation Xrotation Yrotation
                  End Site
                  {
                    OFFSET -1.78271 -1.18214 1.43049
                  }
                }
              }
              JOINT rIndex1
              {
                OFFSET -7.75947 0.938293 5.60832
                CHANNELS 3 Zrotation Xrotation Yrotation
                JOINT rIndex2
                {
                  OFFSET -2.54057 -0.884171 1.56538
                  CHANNELS 3 Zrotation Xrotation Yrotation
                  End Site
                  {
                    OFFSET -1.62519 -0.234802 1.16502
                  }
                }
              }
              JOINT rMid1
              {
                OFFSET -8.24714 1.18213 3.41376
                CHANNELS 3 Zrotation Xrotation Yrotation
                JOINT rMid2
                {
                  OFFSET -3.10165 -0.590103 1.0647
                  CHANNELS 3 Zrotation Xrotation Yrotation
                  End Site
                  {
                    OFFSET -2.48547 -0.328903 0.83742
                  }
                }
              }
              JOINT rRing1
              {
                OFFSET -8.82822 0.546677 1.51678
                CHANNELS 3 Zrotation Xrotation Yrotation
                JOINT rRing2
                {
                  OFFSET -2.60934 -0.819778 -0.0198488
                  CHANNELS 3 Zrotation Xrotation Yrotation
                  End Site
                  {
                    OFFSET -2.33842 -0.294052 0.168128
                  }
                }
              }
              JOINT rPinky1
              {
                OFFSET -8.27202 -0.0477905 -0.4584
                CHANNELS 3 Zrotation Xrotation Yrotation
                JOINT rPinky2
                {
                  OFFSET -1.82734 -0.647385 -0.700984
                  CHANNELS 3 Zrotation Xrotation Yrotation
                  End Site
                  {
                    OFFSET -1.69225 -0.51767 -0.607171
                  }
                }
              }
            }
          }
        }
      }
      JOINT lCollar
      {
        OFFSET 2.68224 19.2634 -4.8768
        CHANNELS 3 Zrotation Xrotation Yrotation
        JOINT lShldr
        {
          OFFSET 8.77824 -1.95073 1.46304
          CHANNELS 3 Zrotation Xrotation Yrotation
          JOINT lForeArm
          {
            OFFSET 28.1742 -1.7115 0.48768
            CHANNELS 3 Zrotation Xrotation Yrotation
            JOINT lHand
            {
              OFFSET 22.5879 0.773209 7.07136
              CHANNELS 3 Zrotation Xrotation Yrotation
              JOINT lThumb1
              {
                OFFSET 1.2192 -0.487915 3.41376
                CHANNELS 3 Zrotation Xrotation Yrotation
                JOINT lThumb2
                {
                  OFFSET 3.37035 -0.52449 3.41376
                  CHANNELS 3 Zrotation Xrotation Yrotation
                  End Site
                  {
                    OFFSET 1.78271 -1.18214 1.43049
                  }
                }
              }
              JOINT lIndex1
              {
                OFFSET 7.75947 0.938293 5.60832
                CHANNELS 3 Zrotation Xrotation Yrotation
                JOINT lIndex2
                {
                  OFFSET 2.54057 -0.884171 1.56538
                  CHANNELS 3 Zrotation Xrotation Yrotation
                  End Site
                  {
                    OFFSET 1.62519 -0.234802 1.16502
                  }
                }
              }
              JOINT lMid1
              {
                OFFSET 8.24714 1.18213 3.41376
                CHANNELS 3 Zrotation Xrotation Yrotation
                JOINT lMid2
                {
                  OFFSET 3.10165 -0.590103 1.0647
                  CHANNELS 3 Zrotation Xrotation Yrotation
                  End Site
                  {
                    OFFSET 2.48547 -0.328903 0.83742
                  }
                }
              }
              JOINT lRing1
              {
                OFFSET 8.82822 0.546677 1.51678
                CHANNELS 3 Zrotation Xrotation Yrotation
                JOINT lRing2
                {
                  OFFSET 2.60934 -0.819778 -0.0198488
                  CHANNELS 3 Zrotation Xrotation Yrotation
                  End Site
                  {
                    OFFSET 2.33842 -0.294052 0.168128
                  }
                }
              }
              JOINT lPinky1
              {
                OFFSET 8.27202 -0.0477905 -0.4584
                CHANNELS 3 Zrotation Xrotation Yrotation
                JOINT lPinky2
                {
                  OFFSET 1.82734 -0.647385 -0.700984
                  CHANNELS 3 Zrotation Xrotation Yrotation
                  End Site
                  {
                    OFFSET 1.69225 -0.51767 -0.607171
                  }
                }
              }
            }
          }
        }
      }
    }
  }
  JOINT rButtock
  {
    OFFSET -8.77824 4.35084 1.2192
    CHANNELS 3 Zrotation Xrotation Yrotation
    JOINT rThigh
    {
      OFFSET 0 -1.70687 -2.19456
      CHANNELS 3 Zrotation Xrotation Yrotation
      JOINT rShin
      {
        OFFSET 0 -36.8199 0.73152
        CHANNELS 3 Zrotation Xrotation Yrotation
        JOINT rFoot
        {
          OFFSET 0.73152 -45.1104 -5.12064
          CHANNELS 3 Zrotation Xrotation Yrotation
          End Site
          {
            OFFSET -1.1221 -3.69964 12.103
          }
        }
      }
    }
  }
  JOINT lButtock
  {
    OFFSET 8.77824 4.35084 1.2192
    CHANNELS 3 Zrotation Xrotation Yrotation
    JOINT lThigh
    {
      OFFSET 0 -1.70687 -2.19456
      CHANNELS 3 Zrotation Xrotation Yrotation
      JOINT lShin
      {
        OFFSET 0 -36.8199 0.73152
        CHANNELS 3 Zrotation Xrotation Yrotation
        JOINT lFoot
        {
          OFFSET -0.73152 -45.1104 -5.12064
          CHANNELS 3 Zrotation Xrotation Yrotation
          End Site
          {
            OFFSET 1.1221 -3.69964 12.103
          }
        }
      }
    }
  }
}
MOTION
Frames:	5
Frame Time:	0.03333
-21.9248 64.4285 -73.83999999999999 -175.87548 34.08477 -173.663449 0.659544 12.369279 175.045994 0.657791 2.168307 -170.044631 -7.957918 19.479718 -46.771509 32.616588 -13.483475 78.454283 0.0017 -0.0 -0.003203 0.001559 0.0 0.002799 -153.659817 7.057034 159.422289 98.542996 -55.23269 122.601834 17.088203 -48.737181 113.759975 -12.857806 40.52573 3.659304 81.971534 -50.091883 32.722863 -138.34242 15.391454 103.441181 2.326352 -3.86765 -1.259576 -113.172267 38.189162 89.037132 0.53993 -1.590105 -0.29534 -34.370135 55.16232 28.969505 -145.120231 0.310329 -179.225255 10.192163 -0.1303 -9.014652 26.981712 80.122188 10.129181 -148.853067 12.901042 -143.030864 -3.231084 -26.298029 5.158129 106.966696 -21.253123 170.90902 -91.960571 -33.067945 103.796452 112.269758 65.439185 -89.477045 85.828647 38.630907 -47.956043 127.131479 -19.148214 -78.528241 -179.296151 -59.502433 -116.320467 -36.06384 -38.058201 6.639754 -6.908568 -21.623999 2.811383 -165.981058 -65.584209 -131.659865 145.111152 -0.668322 178.917277 16.027541 -68.332736 37.231756 156.384935 53.734855 150.113934 128.794166 -28.144136 125.600826 179.996234 75.748981 0.003886 168.882442 46.701185 81.643 59.510079 21.647544 -129.666578 176.540804 -14.424434 -14.432499 -179.988747 75.748088 -0.009258 -151.222137 12.809655 -68.017869 -49.804036 34.987171 120.917663 -23.31303 36.454394 -11.507072
-22.270799999999998 64.3084 -75.3142 -175.311045 31.121405 -174.549695 0.990613 11.311426 174.962027 0.494526 1.954214 -169.781589 11.328468 20.714512 78.377271 -34.647089 1.196579 -53.142734 -0.00286 -0.0 0.001961 0.002754 -0.0 -0.003695 -159.22108 -48.028642 170.41439 149.895015 12.164966 -173.836486 -177.213827 19.546475 42.438495 165.29907 -26.296268 142.278835 -0.54417 0.536131 0.085862 -160.627345 -70.650802 115.953129 -148.887432 -12.609865 120.243763 0.332946 19.463269 -5.391275 -82.839883 61.110843 74.532635 -0.63989 11.311347 2.070348 0.00052 0.063575 0.021341 8.111559 22.052316 3.177109 -86.171756 -50.468907 -84.540091 -157.77713 49.347744 -148.198791 142.973557 39.431605 -147.390048 -112.45341 -35.269724 -136.639186 -106.753395 42.422872 -89.481633 147.679842 50.887754 -122.462721 -76.384802 -49.199909 -28.871544 56.165655 31.915326 -19.528914 113.890693 30.849308 -96.363984 159.669646 -2.898533 -116.088185 -23.905746 -61.333485 -1.400411 129.32117 52.055578 -118.341606 70.378746 -72.131075 87.279415 149.895521 -26.962764 179.995373 -17.313504 60.660488 -12.800586 129.373101 -28.892736 126.506731 -179.998548 75.748514 -0.001498 168.886991 50.527039 8.481409 12.358164 62.25185 78.592845 166.737138 37.541325 119.99483 -9e-05 -0.000559 0.000116 44.884165 -48.364702 53.114812 22.501235 54.796308 -121.256468 -13.822765 -16.082452 113.894931
-22.7734 63.843 -76.8644 -174.950177 28.061707 -175.124504 1.341223 15.013093 5.966343 -0.91606 -6.510302 -0.781137 -9.23727 21.509289 -62.685905 36.381062 -3.857972 88.843129 -0.001495 0.0 -0.001316 -0.001495 0.0 -0.001316 0.070653 -0.42791 -0.094115 -12.124759 -71.680531 -68.738757 -143.421082 79.688686 -110.986471 -7.122668 26.535095 1.298029 4.53063 -4.514198 -0.521277 0.022368 -1.528198 -3.151378 -151.352658 -17.158711 121.13276 10.796837 0.943156 -9.733376 37.455601 -72.537847 11.707947 -163.733187 -5.55514 143.276866 -114.667163 66.730964 135.091371 -78.03211 -81.248773 -95.326605 -124.850887 -29.039358 -122.622746 -136.855709 -12.878518 -134.178997 -0.163568 -0.989992 0.218688 -6.199207 74.62548 -64.133441 53.184618 -81.0471 -48.02815 6.281902 -8.888459 3.466013 170.623338 -8.30546 -89.948498 -123.806575 -58.304705 -89.201626 -20.934749 -37.331977 5.933188 -10.829171 6.840685 1.043243 -89.036147 -81.39208 -59.761957 172.388506 -31.321758 -143.872676 145.118248 0.185484 179.186497 73.702616 -78.002356 95.210101 85.78408 -50.537787 84.155147 151.863893 29.63125 146.135031 -179.854547 75.74816 -0.112105 167.674605 50.629614 -164.217483 0.502745 -66.461739 91.783938 -114.345883 -66.540213 -20.450178 179.986379 75.748873 0.009319 -150.59572 15.97872 89.938957 50.826514 -12.452302 -91.92977 -52.002713 1.184205 32.825556
-23.267 63.3574 -78.2517 -174.848873 24.813588 -175.796577 0.37792 13.653737 43.765063 -2.983849 -5.289933 -38.676194 12.21194 22.743693 94.534225 -35.524537 11.391429 -69.059082 0.000988 0.0 0.003447 0.000635 -0.0 -0.002459 -142.973343 39.431448 147.389707 87.080116 -38.745443 92.190664 164.693513 43.74403 54.514074 170.502723 -12.375874 144.942183 138.454646 -44.581322 71.589839 -63.842106 20.268357 14.221069 -140.164684 2.326109 115.87746 -158.98945 -6.427714 118.711863 -82.839441 61.111387 74.532796 -162.816196 -3.976494 143.084319 -72.964447 -72.143679 -89.989856 -63.993008 83.30409 81.718473 -14.102661 -26.511262 -13.432444 -145.379979 7.094313 -142.412316 9.651561 34.83619 -11.19923 102.002725 6.576896 -136.233724 179.052916 5.337502 76.714658 10.120531 3.154366 2.159505 -8.27041 -8.263231 0.68249 136.958784 -36.775811 -122.138118 -10.212279 -18.050549 4.562505 -169.791152 -47.300044 -99.239474 36.036851 51.722872 -29.832509 -80.700974 -77.899629 -52.069466 145.117594 0.185888 179.185456 -11.208095 13.860845 7.368268 12.374187 -24.158299 11.757228 84.852149 -53.793165 84.844777 0.001698 0.00011 0.001698 -9.203182 -19.371245 -3.249892 -4.974736 58.953375 -36.428436 -24.386969 -22.079432 9.269589 0.001698 0.00011 0.001698 47.493605 -47.698531 -124.132681 -18.423603 -50.200812 123.359463 -49.686183 -35.211428 52.032202
-23.5981 62.9918 -79.4078 -174.820462 21.141767 -176.344962 0.766164 13.137813 39.566557 -2.333282 -5.519514 -34.569003 10.487932 18.119416 68.084558 -32.4341 -4.708152 -49.226483 -0.000651 0.0 -0.001432 -0.000671 0.0 -0.001768 -13.744488 42.431227 15.570404 57.724985 3.430072 18.142847 -7.132191 -24.604359 98.262421 -5.098076 21.493036 0.957906 55.517291 -43.151213 15.431993 -58.658247 -85.309036 -106.158733 -90.225902 41.073717 75.796893 -171.823418 -22.830388 114.38447 6.532314 -20.415028 -2.71888 -7.381312 26.18296 6.040299 0.001093 -0.018208 -0.007827 6.910459 29.712042 4.682367 -1.148904 -2.91459 -1.065275 -80.581457 -54.503178 -80.23343 82.106235 68.325968 -85.221398 -88.716877 -27.075536 -90.425338 -94.722024 35.047462 -88.250843 122.11092 62.596893 -98.787668 68.481652 37.954393 -35.659921 146.914731 -34.039522 -85.802917 132.81835 12.807919 -111.110005 -45.000775 -54.907922 -2.717612 89.835429 60.7026 -81.262885 162.81593 -3.979156 -143.072472 145.119246 0.31093 179.22404 -11.942048 52.756015 2.723682 -44.733389 86.377636 5.364981 148.441755 11.579033 142.596444 179.97141 75.747808 0.023523 163.92656 55.495935 -160.728355 -9.143991 -68.50562 52.430843 176.278494 -44.234562 -86.901017 -179.983893 75.749469 -0.011021 -150.418743 14.254391 -180.0 -1.978654 -64.016697 33.010748 -81.293136 41.427866 148.08938
